# xmcd
#
# Track frame offsets: 
#        150
#        18862
#        34125
#        49512
#        60037
#        73730
#        89750
#        116012
#        132860
#        146300
#        158075
#        176282
#        189470
#        203945
#        220282
#        237750
#        251555
#        265297
#        276087
#
# Disc length: 3880 seconds
#
# Revision: 0
# Processed by: cddbd v1.5.1PL2 Copyright (c) Steve Scherf et al.
# Submitted via: ExactAudioCopy v0.95b3
#
DISCID=0a0f2613
DTITLE=Various Artist - WANTED Compilation #6
DYEAR=1990
DGENRE=Country
TTITLE0=Angela Lidin/Crazy Dad
TTITLE1=Don McHan/Blue Jeans and White Spanish lace
TTITLE2=Martin Nilsson/Tonihgt I've Got Memmory Back Again
TTITLE3=Larry Hamilton/Round Table Blues
TTITLE4=Qysten Grottum/I'm Your Man
TTITLE5=Leighton B. Watts/Cowboy
TTITLE6=Rick Hertless/(Dear Frances) My Loving Wife
TTITLE7=Hubbas/And I Love You So
TTITLE8=Jamie Harper/Big City Girl
TTITLE9=Herman L. Meyer, Norma Jean/Till The End Of Time
TTITLE10=Ulf Dahlberg/The Fight
TTITLE11=Jerry Hanlon/Doing It By The Book
TTITLE12=Gregory C. Perpich/I Can Build A Bridge
TTITLE13=Ronny Serzmark and Alaska Band/For Always
TTITLE14=Mountain Man/The Legend Of Turtle Mountain
TTITLE15=Alice/When She Smiled At Him
TTITLE16=Peter Kent/Six Hot Exes
TTITLE17=Chris Roof/Hole In One
TTITLE18=Paul Mateki/Heart Full Of Holes
EXTD=
EXTT0=
EXTT1=
EXTT2=
EXTT3=
EXTT4=
EXTT5=
EXTT6=
EXTT7=
EXTT8=
EXTT9=
EXTT10=
EXTT11=
EXTT12=
EXTT13=
EXTT14=
EXTT15=
EXTT16=
EXTT17=
EXTT18=
PLAYORDER=
